<?xml version="1.0" encoding="utf-8"?>
<!-- Generator: Adobe Illustrator 27.7.0, SVG Export Plug-In . SVG Version: 6.00 Build 0)  -->
<svg version="1.1" id="Layer_1" xmlns="http://www.w3.org/2000/svg" xmlns:xlink="http://www.w3.org/1999/xlink" x="0px" y="0px"
	 viewBox="0 0 512 512" style="enable-background:new 0 0 512 512;" xml:space="preserve">
<style type="text/css">
	.st0{fill-rule:evenodd;clip-rule:evenodd;fill:url(#SVGID_1_);}
	.st1{fill-rule:evenodd;clip-rule:evenodd;fill:url(#SVGID_00000174572603856816722540000010897872372588291244_);}
	.st2{fill-rule:evenodd;clip-rule:evenodd;fill:url(#SVGID_00000032630714496786456280000011962710853779924641_);}
	.st3{fill-rule:evenodd;clip-rule:evenodd;fill:url(#SVGID_00000147179170650233496060000016818236418305517195_);}
	.st4{fill-rule:evenodd;clip-rule:evenodd;fill:url(#SVGID_00000078015040939748557410000012158135171257532057_);}
	.st5{fill-rule:evenodd;clip-rule:evenodd;fill:url(#SVGID_00000124146138972747707290000000874120841786272931_);}
</style>
<g id="Icon">
	<linearGradient id="SVGID_1_" gradientUnits="userSpaceOnUse" x1="72.8637" y1="487.2951" x2="204.4363" y2="259.4049">
		<stop  offset="0" style="stop-color:#328EF0"/>
		<stop  offset="1" style="stop-color:#0FADD9"/>
	</linearGradient>
	<path class="st0" d="M250.7,320c0-15.6-6.2-30.5-17.2-41.5s-25.9-17.2-41.5-17.2H85.3c-15.6,0-30.5,6.2-41.5,17.2
		S26.6,304.4,26.6,320v106.7c0,15.6,6.2,30.5,17.2,41.5s25.9,17.2,41.5,17.2H192c15.6,0,30.5-6.2,41.5-17.2s17.2-25.9,17.2-41.5V320
		z M218.7,320v106.7c0,7.1-2.8,13.8-7.8,18.9c-5,5-11.8,7.8-18.9,7.8H85.3c-7.1,0-13.8-2.8-18.9-7.8c-5-5-7.8-11.8-7.8-18.9V320
		c0-7.1,2.8-13.8,7.8-18.9c5-5,11.8-7.8,18.9-7.8H192c7.1,0,13.8,2.8,18.9,7.8C215.9,306.2,218.7,312.9,218.7,320z"/>
	
		<linearGradient id="SVGID_00000111164587651091460930000006014702256972770183_" gradientUnits="userSpaceOnUse" x1="307.5638" y1="487.2951" x2="439.1113" y2="259.4482">
		<stop  offset="0" style="stop-color:#328EF0"/>
		<stop  offset="1" style="stop-color:#0FADD9"/>
	</linearGradient>
	<path style="fill-rule:evenodd;clip-rule:evenodd;fill:url(#SVGID_00000111164587651091460930000006014702256972770183_);" d="
		M485.3,320c0-15.6-6.2-30.5-17.2-41.5s-25.9-17.2-41.5-17.2H320c-15.6,0-30.5,6.2-41.5,17.2s-17.2,25.9-17.2,41.5v106.7
		c0,15.6,6.2,30.5,17.2,41.5s25.9,17.2,41.5,17.2h106.7c15.6,0,30.5-6.2,41.5-17.2s17.2-25.9,17.2-41.5V320H485.3z M423.9,387.2
		c5-2.8,8.1-8.1,8.1-13.9s-3.1-11.1-8.1-13.9l-74.7-42.7c-4.9-2.8-11-2.8-16,0c-4.9,2.9-8,8.1-8,13.8V416c0,5.7,3,11,8,13.8
		c4.9,2.9,11,2.9,16,0L423.9,387.2z"/>
	
		<linearGradient id="SVGID_00000160883369524568768830000012886067369186964663_" gradientUnits="userSpaceOnUse" x1="162.6987" y1="349.8587" x2="178.7013" y2="322.1413">
		<stop  offset="0" style="stop-color:#328EF0"/>
		<stop  offset="1" style="stop-color:#0FADD9"/>
	</linearGradient>
	
		<circle style="fill-rule:evenodd;clip-rule:evenodd;fill:url(#SVGID_00000160883369524568768830000012886067369186964663_);" cx="170.7" cy="336" r="16"/>
	
		<linearGradient id="SVGID_00000128448170821156619120000013620066383037115521_" gradientUnits="userSpaceOnUse" x1="72.8638" y1="252.5951" x2="204.4362" y2="24.7049">
		<stop  offset="0" style="stop-color:#328EF0"/>
		<stop  offset="1" style="stop-color:#0FADD9"/>
	</linearGradient>
	<path style="fill-rule:evenodd;clip-rule:evenodd;fill:url(#SVGID_00000128448170821156619120000013620066383037115521_);" d="
		M250.7,85.3c0-15.6-6.2-30.5-17.2-41.5S207.6,26.6,192,26.6H85.3c-15.6,0-30.5,6.2-41.5,17.2S26.6,69.7,26.6,85.3V192
		c0,15.6,6.2,30.5,17.2,41.5s25.9,17.2,41.5,17.2H192c15.6,0,30.5-6.2,41.5-17.2s17.2-25.9,17.2-41.5V85.3z M162.5,162.2
		c0.1-0.7,0.1-1.5,0.1-2.2v-42.7h5.3c8.8,0,16-7.2,16-16s-7.2-16-16-16h-21.3c-8.8,0-16,7.2-16,16v32c-17.7,0-32,14.3-32,32
		s14.3,32,32,32s32-14.3,32-32C162.7,164.3,162.6,163.2,162.5,162.2L162.5,162.2z"/>
	
		<linearGradient id="SVGID_00000140003484152623511060000017521986976724925358_" gradientUnits="userSpaceOnUse" x1="72.8013" y1="481.3791" x2="146.5483" y2="353.6455">
		<stop  offset="0" style="stop-color:#328EF0"/>
		<stop  offset="1" style="stop-color:#0FADD9"/>
	</linearGradient>
	<path style="fill-rule:evenodd;clip-rule:evenodd;fill:url(#SVGID_00000140003484152623511060000017521986976724925358_);" d="
		M121.3,395l-66-84.8c-4.2-5.4-11.3-7.5-17.8-5.3s-10.8,8.3-10.8,15.1l16,144H224l16-26.7c0-4.2-1.7-8.3-4.7-11.3l-47.4-47.4
		c-8.6-8.7-22.1-10.3-32.6-4L121.3,395z"/>
	
		<linearGradient id="SVGID_00000007402503510961240880000018243379108767622075_" gradientUnits="userSpaceOnUse" x1="307.5638" y1="252.5951" x2="439.1112" y2="24.7482">
		<stop  offset="0" style="stop-color:#328EF0"/>
		<stop  offset="1" style="stop-color:#0FADD9"/>
	</linearGradient>
	<path style="fill-rule:evenodd;clip-rule:evenodd;fill:url(#SVGID_00000007402503510961240880000018243379108767622075_);" d="
		M485.3,85.3c0-15.6-6.2-30.5-17.2-41.5s-25.9-17.2-41.5-17.2H320c-15.6,0-30.5,6.2-41.5,17.2s-17.2,25.9-17.2,41.5V192
		c0,15.6,6.2,30.5,17.2,41.5s25.9,17.2,41.5,17.2h106.7c15.6,0,30.5-6.2,41.5-17.2s17.2-25.9,17.2-41.5V85.3H485.3z M330.7,186.7
		H416c8.8,0,16-7.2,16-16s-7.2-16-16-16h-85.3c-8.8,0-16,7.2-16,16S321.8,186.7,330.7,186.7z M330.7,122.7H384c8.8,0,16-7.2,16-16
		s-7.2-16-16-16h-53.3c-8.8,0-16,7.2-16,16S321.8,122.7,330.7,122.7z"/>
</g>
</svg>
