<?xml version="1.0" encoding="utf-8"?>
<!-- Generator: Adobe Illustrator 27.7.0, SVG Export Plug-In . SVG Version: 6.00 Build 0)  -->
<svg version="1.1" id="Layer_1" xmlns="http://www.w3.org/2000/svg" xmlns:xlink="http://www.w3.org/1999/xlink" x="0px" y="0px"
	 viewBox="0 0 512 512" style="enable-background:new 0 0 512 512;" xml:space="preserve">
<style type="text/css">
	.st0{fill-rule:evenodd;clip-rule:evenodd;fill:#FFFFFF;}
</style>
<g id="Icon">
	<path class="st0" d="M250.7,320c0-15.6-6.2-30.5-17.2-41.5c-11-11-25.9-17.2-41.5-17.2H85.3c-15.6,0-30.5,6.2-41.5,17.2
		c-11,11-17.2,25.9-17.2,41.5v106.7c0,15.6,6.2,30.5,17.2,41.5c11,11,25.9,17.2,41.5,17.2H192c15.6,0,30.5-6.2,41.5-17.2
		c11-11,17.2-25.9,17.2-41.5V320z M218.7,320v106.7c0,7.1-2.8,13.8-7.8,18.9c-5,5-11.8,7.8-18.9,7.8H85.3c-7.1,0-13.8-2.8-18.9-7.8
		c-5-5-7.8-11.8-7.8-18.9V320c0-7.1,2.8-13.8,7.8-18.9c5-5,11.8-7.8,18.9-7.8H192c7.1,0,13.8,2.8,18.9,7.8
		C215.9,306.2,218.7,312.9,218.7,320z"/>
	<path class="st0" d="M485.3,320c0-15.6-6.2-30.5-17.2-41.5c-11-11-25.9-17.2-41.5-17.2H320c-15.6,0-30.5,6.2-41.5,17.2
		c-11,11-17.2,25.9-17.2,41.5v106.7c0,15.6,6.2,30.5,17.2,41.5c11,11,25.9,17.2,41.5,17.2h106.7c15.6,0,30.5-6.2,41.5-17.2
		c11-11,17.2-25.9,17.2-41.5V320z M423.9,387.2c5-2.8,8.1-8.1,8.1-13.9s-3.1-11.1-8.1-13.9l-74.7-42.7c-4.9-2.8-11-2.8-16,0
		c-4.9,2.9-8,8.1-8,13.8V416c0,5.7,3,11,8,13.8c4.9,2.9,11,2.9,16,0L423.9,387.2z"/>
	<circle class="st0" cx="170.7" cy="336" r="16"/>
	<path class="st0" d="M250.7,85.3c0-15.6-6.2-30.5-17.2-41.5c-11-11-25.9-17.2-41.5-17.2H85.3c-15.6,0-30.5,6.2-41.5,17.2
		c-11,11-17.2,25.9-17.2,41.5V192c0,15.6,6.2,30.5,17.2,41.5c11,11,25.9,17.2,41.5,17.2H192c15.6,0,30.5-6.2,41.5-17.2
		c11-11,17.2-25.9,17.2-41.5V85.3z M162.5,162.2c0.1-0.7,0.1-1.5,0.1-2.2v-42.7h5.3c8.8,0,16-7.2,16-16s-7.2-16-16-16h-21.3
		c-8.8,0-16,7.2-16,16v32c-17.7,0-32,14.3-32,32s14.3,32,32,32s32-14.3,32-32C162.7,164.3,162.6,163.2,162.5,162.2L162.5,162.2z"/>
	<path class="st0" d="M121.3,395l-66-84.8c-4.2-5.4-11.3-7.5-17.8-5.3s-10.8,8.3-10.8,15.1l16,144H224l16-26.7
		c0-4.2-1.7-8.3-4.7-11.3l-47.4-47.4c-8.6-8.7-22.1-10.3-32.6-4L121.3,395z"/>
	<path class="st0" d="M485.3,85.3c0-15.6-6.2-30.5-17.2-41.5c-11-11-25.9-17.2-41.5-17.2H320c-15.6,0-30.5,6.2-41.5,17.2
		c-11,11-17.2,25.9-17.2,41.5V192c0,15.6,6.2,30.5,17.2,41.5c11,11,25.9,17.2,41.5,17.2h106.7c15.6,0,30.5-6.2,41.5-17.2
		c11-11,17.2-25.9,17.2-41.5V85.3z M330.7,186.7H416c8.8,0,16-7.2,16-16s-7.2-16-16-16h-85.3c-8.8,0-16,7.2-16,16
		C314.7,179.5,321.8,186.7,330.7,186.7z M330.7,122.7H384c8.8,0,16-7.2,16-16s-7.2-16-16-16h-53.3c-8.8,0-16,7.2-16,16
		S321.8,122.7,330.7,122.7z"/>
</g>
</svg>
