<?xml version="1.0" encoding="utf-8"?>
<!-- Generator: Adobe Illustrator 27.7.0, SVG Export Plug-In . SVG Version: 6.00 Build 0)  -->
<svg version="1.1" id="Layer_1" xmlns="http://www.w3.org/2000/svg" xmlns:xlink="http://www.w3.org/1999/xlink" x="0px" y="0px"
	 viewBox="0 0 100 100" style="enable-background:new 0 0 100 100;" xml:space="preserve">
<style type="text/css">
	.st0{fill:#FFFFFF;}
</style>
<path class="st0" d="M97.5,38.8c0,3.6-2.1,6.9-5.4,8.3l-10.7,4.8l-6,2.7l-16.9,7.7c-5.5,2.5-11.7,2.5-17.2,0l-17-7.7l-6-2.7l-6-2.7
	v25.7c0.9,0.5,1.4,1.5,1.4,2.5v6.1c0,1.6-1.3,3-2.9,3c0,0,0,0-0.1,0H8.2c-1.6,0-3-1.3-3-2.9c0,0,0,0,0-0.1v-6.1c0-1,0.5-2,1.4-2.5
	V47.5c0-0.3,0.1-0.7,0.2-1c-4.3-2.7-5.6-8.3-2.9-12.6c1-1.5,2.4-2.8,4-3.5l33.5-15.2c5.5-2.5,11.7-2.5,17.2,0l33.5,15.2
	C95.4,31.9,97.5,35.2,97.5,38.8z M61.1,67.7c-7,3.3-15.1,3.3-22.1,0l-20.5-9.2v7.6c0,4.6,2.2,9,5.8,11.8c15.2,11.6,36.2,11.6,51.4,0
	c3.7-2.8,5.8-7.2,5.8-11.8v-7.7L78,60L61.1,67.7z"/>
</svg>
