<?xml version="1.0" encoding="utf-8"?>
<!-- Generator: Adobe Illustrator 27.7.0, SVG Export Plug-In . SVG Version: 6.00 Build 0)  -->
<svg version="1.1" id="Layer_1" xmlns="http://www.w3.org/2000/svg" xmlns:xlink="http://www.w3.org/1999/xlink" x="0px" y="0px"
	 viewBox="0 0 128 128" style="enable-background:new 0 0 128 128;" xml:space="preserve">
<style type="text/css">
	.st0{fill:#FFFFFF;}
</style>
<path class="st0" d="M64,31.9c-22.8,0-42.6,11.1-53.1,27.7c-1.7,2.7-1.7,6.2,0,9C21.4,85,41.2,96.1,64,96.1s42.6-11.1,53.1-27.7
	c1.7-2.7,1.7-6.2,0-9C106.6,43,86.7,31.9,64,31.9z M64,87.8c-13.1,0-23.8-10.6-23.8-23.8S50.9,40.2,64,40.2S87.8,50.9,87.8,64
	c0,0,0,0,0,0C87.8,77.1,77.1,87.8,64,87.8z"/>
<path class="st0" d="M72.3,63.2c-4.1,0-7.5-3.4-7.5-7.5c0-3,1.8-5.7,4.5-6.9c-8.4-3-17.6,1.4-20.6,9.8s1.4,17.6,9.8,20.6
	c8.4,3,17.6-1.4,20.6-9.8c1.2-3.5,1.2-7.3,0-10.8C78,61.4,75.3,63.2,72.3,63.2z"/>
<path class="st0" d="M70.6,22.6v-14C70.6,5,67.6,2,64,2c-3.6,0-6.6,2.9-6.6,6.6v14c2.2-0.2,4.4-0.3,6.6-0.3S68.4,22.4,70.6,22.6z"/>
<path class="st0" d="M120.6,28.3c1.8-3.2,0.7-7.2-2.4-9c-3.1-1.8-7.2-0.7-9,2.4l-6.4,11.1c3.8,2.3,7.4,4.9,10.7,7.8L120.6,28.3z"/>
<path class="st0" d="M14.5,40.7c3.3-2.9,6.9-5.6,10.7-7.8l-6.4-11.1c-1.8-3.1-5.9-4.2-9-2.4c-3.1,1.8-4.2,5.8-2.4,9L14.5,40.7z"/>
<path class="st0" d="M57.4,105.4v14c0,3.6,2.9,6.6,6.6,6.6s6.6-2.9,6.6-6.6l0,0v-14c-2.2,0.2-4.4,0.3-6.6,0.3S59.6,105.6,57.4,105.4
	z"/>
<path class="st0" d="M113.5,87.3c-3.3,2.9-6.9,5.6-10.7,7.8l6.4,11.1c1.8,3.2,5.8,4.3,9,2.4s4.3-5.8,2.4-9c0,0,0,0,0,0L113.5,87.3z"
	/>
<path class="st0" d="M7.4,99.7c-1.8,3.2-0.7,7.2,2.4,9c3.1,1.8,7.1,0.7,9-2.4l6.4-11.1c-3.8-2.3-7.4-4.9-10.7-7.8L7.4,99.7z"/>
</svg>
