<?xml version="1.0" encoding="utf-8"?>
<!-- Generator: Adobe Illustrator 27.7.0, SVG Export Plug-In . SVG Version: 6.00 Build 0)  -->
<svg version="1.1" id="Layer_1" xmlns="http://www.w3.org/2000/svg" xmlns:xlink="http://www.w3.org/1999/xlink" x="0px" y="0px"
	 viewBox="0 0 128 128" style="enable-background:new 0 0 128 128;" xml:space="preserve">
<style type="text/css">
	.st0{fill:url(#SVGID_1_);}
	.st1{fill:url(#SVGID_00000125575131655481129510000017608623971799256721_);}
	.st2{fill:url(#SVGID_00000134961368239814997080000015984437406757575596_);}
	.st3{fill:url(#SVGID_00000003808009161753117440000011999445281778354076_);}
	.st4{fill:url(#SVGID_00000039838437566817497300000003185609206672755855_);}
	.st5{fill:url(#SVGID_00000137122729842044995470000015221450765254347156_);}
	.st6{fill:url(#SVGID_00000015339953105279165920000017526440101875615385_);}
	.st7{fill:url(#SVGID_00000160170163299454094820000018083616269982320024_);}
</style>
<linearGradient id="SVGID_1_" gradientUnits="userSpaceOnUse" x1="45.5795" y1="95.9053" x2="82.4119" y2="32.1097">
	<stop  offset="0" style="stop-color:#BF1A1A"/>
	<stop  offset="1" style="stop-color:#FF6C0C"/>
</linearGradient>
<path class="st0" d="M64,31.9c-22.8,0-42.6,11.1-53.1,27.7c-1.7,2.7-1.7,6.2,0,9C21.4,85,41.2,96.1,64,96.1s42.6-11.1,53.1-27.7
	c1.7-2.7,1.7-6.2,0-9C106.6,43,86.7,31.9,64,31.9z M64,87.8c-13.1,0-23.8-10.6-23.8-23.8S50.9,40.2,64,40.2S87.8,50.9,87.8,64l0,0
	C87.8,77.1,77.1,87.8,64,87.8z"/>
<linearGradient id="SVGID_00000131332211463198745940000007998175658235669673_" gradientUnits="userSpaceOnUse" x1="55.8347" y1="77.9695" x2="71.8318" y2="50.2617">
	<stop  offset="0" style="stop-color:#BF1A1A"/>
	<stop  offset="1" style="stop-color:#FF6C0C"/>
</linearGradient>
<path style="fill:url(#SVGID_00000131332211463198745940000007998175658235669673_);" d="M72.3,63.2c-4.1,0-7.5-3.4-7.5-7.5
	c0-3,1.8-5.7,4.5-6.9c-8.4-3-17.6,1.4-20.6,9.8s1.4,17.6,9.8,20.6s17.6-1.4,20.6-9.8c1.2-3.5,1.2-7.3,0-10.8
	C78,61.4,75.3,63.2,72.3,63.2z"/>
<linearGradient id="SVGID_00000179610611679272077900000003953363751581619869_" gradientUnits="userSpaceOnUse" x1="58.9339" y1="23.4856" x2="69.9374" y2="4.427">
	<stop  offset="0" style="stop-color:#BF1A1A"/>
	<stop  offset="1" style="stop-color:#FF6C0C"/>
</linearGradient>
<path style="fill:url(#SVGID_00000179610611679272077900000003953363751581619869_);" d="M70.6,22.6v-14C70.6,5,67.6,2,64,2
	s-6.6,2.9-6.6,6.6v14c2.2-0.2,4.4-0.3,6.6-0.3S68.4,22.4,70.6,22.6z"/>
<linearGradient id="SVGID_00000119801631971471687420000010270783499540911507_" gradientUnits="userSpaceOnUse" x1="107.7955" y1="37.3065" x2="118.1937" y2="19.2963">
	<stop  offset="0" style="stop-color:#BF1A1A"/>
	<stop  offset="1" style="stop-color:#FF6C0C"/>
</linearGradient>
<path style="fill:url(#SVGID_00000119801631971471687420000010270783499540911507_);" d="M120.6,28.3c1.8-3.2,0.7-7.2-2.4-9
	s-7.2-0.7-9,2.4l-6.4,11.1c3.8,2.3,7.4,4.9,10.7,7.8L120.6,28.3z"/>
<linearGradient id="SVGID_00000051384329753249925150000016214971309339962774_" gradientUnits="userSpaceOnUse" x1="10.074" y1="38.1447" x2="19.7613" y2="21.3658">
	<stop  offset="0" style="stop-color:#BF1A1A"/>
	<stop  offset="1" style="stop-color:#FF6C0C"/>
</linearGradient>
<path style="fill:url(#SVGID_00000051384329753249925150000016214971309339962774_);" d="M14.5,40.7c3.3-2.9,6.9-5.6,10.7-7.8
	l-6.4-11.1c-1.8-3.1-5.9-4.2-9-2.4s-4.2,5.8-2.4,9L14.5,40.7z"/>
<linearGradient id="SVGID_00000100375688886503810930000015967790498378026381_" gradientUnits="userSpaceOnUse" x1="58.0597" y1="123.597" x2="69.0743" y2="104.5191">
	<stop  offset="0" style="stop-color:#BF1A1A"/>
	<stop  offset="1" style="stop-color:#FF6C0C"/>
</linearGradient>
<path style="fill:url(#SVGID_00000100375688886503810930000015967790498378026381_);" d="M57.4,105.4v14c0,3.6,2.9,6.6,6.6,6.6
	s6.6-2.9,6.6-6.6l0,0v-14c-2.2,0.2-4.4,0.3-6.6,0.3S59.6,105.6,57.4,105.4z"/>
<linearGradient id="SVGID_00000174586489040303898250000012914613067670417849_" gradientUnits="userSpaceOnUse" x1="108.2198" y1="106.7023" x2="117.9413" y2="89.8642">
	<stop  offset="0" style="stop-color:#BF1A1A"/>
	<stop  offset="1" style="stop-color:#FF6C0C"/>
</linearGradient>
<path style="fill:url(#SVGID_00000174586489040303898250000012914613067670417849_);" d="M113.5,87.3c-3.3,2.9-6.9,5.6-10.7,7.8
	l6.4,11.1c1.8,3.2,5.8,4.3,9,2.4s4.3-5.8,2.4-9l0,0L113.5,87.3z"/>
<linearGradient id="SVGID_00000063628684850890274990000008761835750854642067_" gradientUnits="userSpaceOnUse" x1="9.8063" y1="108.7037" x2="20.2045" y2="90.6935">
	<stop  offset="0" style="stop-color:#BF1A1A"/>
	<stop  offset="1" style="stop-color:#FF6C0C"/>
</linearGradient>
<path style="fill:url(#SVGID_00000063628684850890274990000008761835750854642067_);" d="M7.4,99.7c-1.8,3.2-0.7,7.2,2.4,9
	s7.1,0.7,9-2.4l6.4-11.1c-3.8-2.3-7.4-4.9-10.7-7.8L7.4,99.7z"/>
</svg>
