<?xml version="1.0" encoding="utf-8"?>
<!-- Generator: Adobe Illustrator 27.7.0, SVG Export Plug-In . SVG Version: 6.00 Build 0)  -->
<svg version="1.1" id="Layer_1" xmlns="http://www.w3.org/2000/svg" xmlns:xlink="http://www.w3.org/1999/xlink" x="0px" y="0px"
	 viewBox="0 0 68 68" style="enable-background:new 0 0 68 68;" xml:space="preserve">
<style type="text/css">
	.st0{fill:url(#SVGID_1_);}
	.st1{fill:url(#SVGID_00000100346952210351663550000011801330680864078525_);}
	.st2{fill:url(#SVGID_00000052825145581468777120000011984085779499793296_);}
	.st3{fill:url(#SVGID_00000002343433659388972660000015534100361257700278_);}
	.st4{fill:url(#SVGID_00000057858489235473561290000018376749012054006694_);}
</style>
<g>
	<linearGradient id="SVGID_1_" gradientUnits="userSpaceOnUse" x1="22.9444" y1="30.2622" x2="44.9744" y2="-7.8948">
		<stop  offset="0" style="stop-color:#450693"/>
		<stop  offset="1" style="stop-color:#8C00FF"/>
	</linearGradient>
	<path class="st0" d="M65.2,5.5v11.4c0,1.6-1.3,2.9-2.9,2.9H5.6c-1.6,0-2.9-1.3-2.9-2.9V5.5c0-1.6,1.3-2.9,2.9-2.9h56.8
		C64,2.6,65.2,3.9,65.2,5.5z"/>
	
		<linearGradient id="SVGID_00000023258327110800783150000000542677909507002760_" gradientUnits="userSpaceOnUse" x1="14.0944" y1="47.9527" x2="30.2052" y2="20.048">
		<stop  offset="0" style="stop-color:#450693"/>
		<stop  offset="1" style="stop-color:#8C00FF"/>
	</linearGradient>
	<path style="fill:url(#SVGID_00000023258327110800783150000000542677909507002760_);" d="M41.6,28.3v11.4c0,1.6-1.3,2.9-2.9,2.9
		H5.6c-1.6,0-2.9-1.3-2.9-2.9V28.3c0-1.6,1.3-2.9,2.9-2.9h33.2C40.4,25.5,41.6,26.7,41.6,28.3z"/>
	
		<linearGradient id="SVGID_00000160160075957263722960000003973547193778574000_" gradientUnits="userSpaceOnUse" x1="37.6944" y1="70.7527" x2="53.7965" y2="42.8631">
		<stop  offset="0" style="stop-color:#450693"/>
		<stop  offset="1" style="stop-color:#8C00FF"/>
	</linearGradient>
	<path style="fill:url(#SVGID_00000160160075957263722960000003973547193778574000_);" d="M65.2,51.1v11.4c0,1.6-1.3,2.9-2.9,2.9
		H29.2c-1.6,0-2.9-1.3-2.9-2.9V51.1c0-1.6,1.3-2.9,2.9-2.9h33.2C64,48.3,65.2,49.6,65.2,51.1z"/>
	
		<linearGradient id="SVGID_00000093883418677357754690000004315320425491799436_" gradientUnits="userSpaceOnUse" x1="52.4481" y1="41.3644" x2="60.9519" y2="26.6356">
		<stop  offset="0" style="stop-color:#450693"/>
		<stop  offset="1" style="stop-color:#8C00FF"/>
	</linearGradient>
	<path style="fill:url(#SVGID_00000093883418677357754690000004315320425491799436_);" d="M65.2,34c0,4.7-3.8,8.5-8.5,8.5
		s-8.5-3.8-8.5-8.5s3.8-8.5,8.5-8.5S65.2,29.3,65.2,34z"/>
	
		<linearGradient id="SVGID_00000157993039545631729050000001039658953037025952_" gradientUnits="userSpaceOnUse" x1="7.0481" y1="64.1644" x2="15.5519" y2="49.4356">
		<stop  offset="0" style="stop-color:#450693"/>
		<stop  offset="1" style="stop-color:#8C00FF"/>
	</linearGradient>
	<path style="fill:url(#SVGID_00000157993039545631729050000001039658953037025952_);" d="M19.8,56.8c0,4.7-3.8,8.5-8.5,8.5
		s-8.5-3.8-8.5-8.5s3.8-8.5,8.5-8.5S19.8,52.1,19.8,56.8z"/>
</g>
</svg>
