<?xml version="1.0" encoding="utf-8"?>
<!-- Generator: Adobe Illustrator 27.7.0, SVG Export Plug-In . SVG Version: 6.00 Build 0)  -->
<svg version="1.1" id="Layer_1" xmlns="http://www.w3.org/2000/svg" xmlns:xlink="http://www.w3.org/1999/xlink" x="0px" y="0px"
	 viewBox="0 0 68 68" style="enable-background:new 0 0 68 68;" xml:space="preserve">
<style type="text/css">
	.st0{fill:#FFFFFF;}
</style>
<g>
	<path class="st0" d="M65.2,5.5v11.4c0,1.6-1.3,2.9-2.9,2.9H5.6c-1.6,0-2.9-1.3-2.9-2.9V5.5c0-1.6,1.3-2.9,2.9-2.9h56.8
		C64,2.6,65.2,3.9,65.2,5.5z"/>
	<path class="st0" d="M41.6,28.3v11.4c0,1.6-1.3,2.9-2.9,2.9H5.6c-1.6,0-2.9-1.3-2.9-2.9V28.3c0-1.6,1.3-2.9,2.9-2.9h33.2
		C40.4,25.5,41.6,26.7,41.6,28.3z"/>
	<path class="st0" d="M65.2,51.1v11.4c0,1.6-1.3,2.9-2.9,2.9H29.2c-1.6,0-2.9-1.3-2.9-2.9V51.1c0-1.6,1.3-2.9,2.9-2.9h33.2
		C64,48.3,65.2,49.6,65.2,51.1z"/>
	<path class="st0" d="M65.2,34c0,4.7-3.8,8.5-8.5,8.5s-8.5-3.8-8.5-8.5c0-4.7,3.8-8.5,8.5-8.5S65.2,29.3,65.2,34z"/>
	<path class="st0" d="M19.8,56.8c0,4.7-3.8,8.5-8.5,8.5s-8.5-3.8-8.5-8.5c0-4.7,3.8-8.5,8.5-8.5S19.8,52.1,19.8,56.8z"/>
</g>
</svg>
