<?xml version="1.0" encoding="utf-8"?>
<!-- Generator: Adobe Illustrator 27.7.0, SVG Export Plug-In . SVG Version: 6.00 Build 0)  -->
<svg version="1.1" id="Capa_1" xmlns="http://www.w3.org/2000/svg" xmlns:xlink="http://www.w3.org/1999/xlink" x="0px" y="0px"
	 viewBox="0 0 512 512" style="enable-background:new 0 0 512 512;" xml:space="preserve">
<style type="text/css">
	.st0{fill:#FFFFFF;}
</style>
<g>
	<path class="st0" d="M210.9,60.2h90.2v30h-90.2V60.2z"/>
	<path class="st0" d="M210.9,421.8h90.2v30h-90.2V421.8z"/>
	<path class="st0" d="M150.6,120.5h210.8v30H150.6V120.5z"/>
	<path class="st0" d="M150.6,361.5h210.8v30H150.6V361.5z"/>
	<path class="st0" d="M178.6,331.3c-24.9,0-45.1-20.2-45.1-45.1v-60.3c0-24.9,20.2-45.1,45.1-45.1s45.1,20.2,45.1,45.1v60.3
		C223.8,311,203.5,331.3,178.6,331.3z M178.6,210.7c-8.3,0-15.1,6.8-15.1,15.1v60.3c0,8.3,6.8,15.1,15.1,15.1s15.1-6.8,15.1-15.1
		v-60.3C193.8,217.5,187,210.7,178.6,210.7L178.6,210.7z"/>
	<path class="st0" d="M127.4,331.3H67.2V180.8h30v120.5h30.1V331.3z"/>
	<path class="st0" d="M289.1,331.3c-24.9,0-45.1-20.2-45.1-45.1v-60.3c0-24.9,20.2-45.1,45.1-45.1s45.1,20.2,45.1,45.1h-30
		c0-8.3-6.8-15.1-15.1-15.1s-15.1,6.8-15.1,15.1v60.3c0,8.3,6.8,15.1,15.1,15.1s15.1-6.8,15.1-15.1V271h-15.1v-30h45.1v45.1
		C334.2,311,314,331.3,289.1,331.3z"/>
	<path class="st0" d="M399.6,331.3c-24.9,0-45.1-20.2-45.1-45.1v-60.3c0-24.9,20.2-45.1,45.1-45.1s45.1,20.2,45.1,45.1v60.3
		C444.8,311,424.5,331.3,399.6,331.3z M399.6,210.7c-8.3,0-15.1,6.8-15.1,15.1v60.3c0,8.3,6.8,15.1,15.1,15.1s15.1-6.8,15.1-15.1
		v-60.3C414.8,217.5,408,210.7,399.6,210.7L399.6,210.7z"/>
	<path class="st0" d="M256,512c-68.4,0-132.7-26.6-181-75C26.6,388.7,0,324.4,0,256S26.6,123.3,75,75C123.3,26.6,187.6,0,256,0
		s132.7,26.6,181,75c48.4,48.4,75,112.6,75,181s-26.6,132.7-75,181C388.7,485.4,324.4,512,256,512L256,512z M256,30
		c-60.4,0-117.1,23.5-159.8,66.2S30,195.6,30,256s23.5,117.1,66.2,159.8S195.6,482,256,482s117.1-23.5,159.8-66.2S482,316.4,482,256
		s-23.5-117.1-66.2-159.8S316.4,30,256,30z"/>
</g>
</svg>
