<?xml version="1.0" encoding="utf-8"?>
<!-- Generator: Adobe Illustrator 27.7.0, SVG Export Plug-In . SVG Version: 6.00 Build 0)  -->
<svg version="1.1" id="Capa_1" xmlns="http://www.w3.org/2000/svg" xmlns:xlink="http://www.w3.org/1999/xlink" x="0px" y="0px"
	 viewBox="0 0 512 512" style="enable-background:new 0 0 512 512;" xml:space="preserve">
<style type="text/css">
	.st0{fill:url(#SVGID_1_);}
	.st1{fill:url(#SVGID_00000041992637697431012710000006075642011010255764_);}
	.st2{fill:url(#SVGID_00000052815328828627327460000014985165539994499712_);}
	.st3{fill:url(#SVGID_00000065056666229251104980000000218735269113277089_);}
	.st4{fill:url(#SVGID_00000137816783762293301840000000223312201692488092_);}
	.st5{fill:url(#SVGID_00000127011518250840874350000015303036391883467681_);}
	.st6{fill:url(#SVGID_00000066506696690860195560000012028003138658700444_);}
	.st7{fill:url(#SVGID_00000025412071810328284250000014540516276132601759_);}
	.st8{fill:url(#SVGID_00000181045282967915289250000006449841659133074860_);}
</style>
<g>
	<linearGradient id="SVGID_1_" gradientUnits="userSpaceOnUse" x1="238.2298" y1="105.9789" x2="273.7702" y2="44.4211">
		<stop  offset="0" style="stop-color:#1DC267"/>
		<stop  offset="1" style="stop-color:#13BA7A"/>
	</linearGradient>
	<path class="st0" d="M210.9,60.2h90.2v30h-90.2L210.9,60.2L210.9,60.2z"/>
	
		<linearGradient id="SVGID_00000080898936599976938950000014827916560718564247_" gradientUnits="userSpaceOnUse" x1="238.2298" y1="467.5789" x2="273.7702" y2="406.0211">
		<stop  offset="0" style="stop-color:#1DC267"/>
		<stop  offset="1" style="stop-color:#13BA7A"/>
	</linearGradient>
	<path style="fill:url(#SVGID_00000080898936599976938950000014827916560718564247_);" d="M210.9,421.8h90.2v30h-90.2L210.9,421.8
		L210.9,421.8z"/>
	
		<linearGradient id="SVGID_00000115507273886833637580000018245742557314783908_" gradientUnits="userSpaceOnUse" x1="223.1548" y1="192.3895" x2="288.8452" y2="78.6105">
		<stop  offset="0" style="stop-color:#1DC267"/>
		<stop  offset="1" style="stop-color:#13BA7A"/>
	</linearGradient>
	<path style="fill:url(#SVGID_00000115507273886833637580000018245742557314783908_);" d="M150.6,120.5h210.8v30H150.6V120.5z"/>
	
		<linearGradient id="SVGID_00000172419661809425115820000003215451815368623282_" gradientUnits="userSpaceOnUse" x1="223.1548" y1="433.3896" x2="288.8452" y2="319.6104">
		<stop  offset="0" style="stop-color:#1DC267"/>
		<stop  offset="1" style="stop-color:#13BA7A"/>
	</linearGradient>
	<path style="fill:url(#SVGID_00000172419661809425115820000003215451815368623282_);" d="M150.6,361.5h210.8v30H150.6V361.5z"/>
	
		<linearGradient id="SVGID_00000134940000244486453650000005707957448308691614_" gradientUnits="userSpaceOnUse" x1="142.9996" y1="317.728" x2="214.2145" y2="194.3801">
		<stop  offset="0" style="stop-color:#1DC267"/>
		<stop  offset="1" style="stop-color:#13BA7A"/>
	</linearGradient>
	<path style="fill:url(#SVGID_00000134940000244486453650000005707957448308691614_);" d="M178.6,331.3c-24.9,0-45.1-20.2-45.1-45.1
		v-60.3c0-24.9,20.2-45.1,45.1-45.1s45.1,20.2,45.1,45.1v60.3C223.8,311,203.5,331.3,178.6,331.3z M178.6,210.7
		c-8.3,0-15.1,6.8-15.1,15.1v60.3c0,8.3,6.8,15.1,15.1,15.1s15.1-6.8,15.1-15.1v-60.3C193.8,217.5,187,210.7,178.6,210.7
		L178.6,210.7z"/>
	
		<linearGradient id="SVGID_00000086653966358685884200000011013527880728496547_" gradientUnits="userSpaceOnUse" x1="57.1908" y1="325.5212" x2="129.8592" y2="199.6558">
		<stop  offset="0" style="stop-color:#1DC267"/>
		<stop  offset="1" style="stop-color:#13BA7A"/>
	</linearGradient>
	<path style="fill:url(#SVGID_00000086653966358685884200000011013527880728496547_);" d="M127.4,331.3H67.2V180.8h30v120.5h30.1v30
		H127.4z"/>
	
		<linearGradient id="SVGID_00000118390680411941715860000014180474380218579872_" gradientUnits="userSpaceOnUse" x1="253.4764" y1="317.7146" x2="324.6913" y2="194.3668">
		<stop  offset="0" style="stop-color:#1DC267"/>
		<stop  offset="1" style="stop-color:#13BA7A"/>
	</linearGradient>
	<path style="fill:url(#SVGID_00000118390680411941715860000014180474380218579872_);" d="M289.1,331.3c-24.9,0-45.1-20.2-45.1-45.1
		v-60.3c0-24.9,20.2-45.1,45.1-45.1s45.1,20.2,45.1,45.1h-30c0-8.3-6.8-15.1-15.1-15.1s-15.1,6.8-15.1,15.1v60.3
		c0,8.3,6.8,15.1,15.1,15.1s15.1-6.8,15.1-15.1V271h-15.1v-30h45.1v45.1C334.2,311,314,331.3,289.1,331.3z"/>
	
		<linearGradient id="SVGID_00000156571729546413541860000014396580900201733252_" gradientUnits="userSpaceOnUse" x1="363.9996" y1="317.728" x2="435.2145" y2="194.3801">
		<stop  offset="0" style="stop-color:#1DC267"/>
		<stop  offset="1" style="stop-color:#13BA7A"/>
	</linearGradient>
	<path style="fill:url(#SVGID_00000156571729546413541860000014396580900201733252_);" d="M399.6,331.3c-24.9,0-45.1-20.2-45.1-45.1
		v-60.3c0-24.9,20.2-45.1,45.1-45.1s45.1,20.2,45.1,45.1v60.3C444.8,311,424.5,331.3,399.6,331.3z M399.6,210.7
		c-8.3,0-15.1,6.8-15.1,15.1v60.3c0,8.3,6.8,15.1,15.1,15.1s15.1-6.8,15.1-15.1v-60.3C414.8,217.5,408,210.7,399.6,210.7
		L399.6,210.7z"/>
	
		<linearGradient id="SVGID_00000160185066477058462620000008148441365473392794_" gradientUnits="userSpaceOnUse" x1="127.9385" y1="477.809" x2="384.0615" y2="34.1911">
		<stop  offset="0" style="stop-color:#1DC267"/>
		<stop  offset="1" style="stop-color:#13BA7A"/>
	</linearGradient>
	<path style="fill:url(#SVGID_00000160185066477058462620000008148441365473392794_);" d="M256,512c-68.4,0-132.7-26.6-181-75
		C26.6,388.7,0,324.4,0,256S26.6,123.3,75,75C123.3,26.6,187.6,0,256,0s132.7,26.6,181,75c48.4,48.4,75,112.6,75,181
		s-26.6,132.7-75,181C388.7,485.4,324.4,512,256,512L256,512z M256,30c-60.4,0-117.1,23.5-159.8,66.2S30,195.6,30,256
		s23.5,117.1,66.2,159.8S195.6,482,256,482s117.1-23.5,159.8-66.2S482,316.4,482,256s-23.5-117.1-66.2-159.8S316.4,30,256,30z"/>
</g>
</svg>
